<?xml version="1.0" encoding="UTF-8" standalone="no"?><svg xmlns="http://www.w3.org/2000/svg" xmlns:xlink="http://www.w3.org/1999/xlink" contentStyleType="text/css" height="344px" preserveAspectRatio="none" style="width:737px;height:344px;background:#FFFFFF;" version="1.1" viewBox="0 0 737 344" width="737px" zoomAndPan="magnify"><defs/><g><!--MD5=[bdd6754a6858f1003b48474cbb8dbf7f]
entity Visiteur--><g id="elem_Visiteur"><ellipse cx="283.5" cy="271.5" fill="#F1F1F1" rx="8" ry="8" style="stroke:#181818;stroke-width:0.5;"/><path d="M283.5,279.5 L283.5,306.5 M270.5,287.5 L296.5,287.5 M283.5,306.5 L270.5,321.5 M283.5,306.5 L296.5,321.5 " fill="none" style="stroke:#181818;stroke-width:0.5;"/><text fill="#000000" font-family="sans-serif" font-size="14" lengthAdjust="spacing" textLength="51" x="258" y="335.9951">Visiteur</text></g><!--MD5=[db8075859b8dc6afee89c0188a9ca649]
entity Utilisateur--><g id="elem_Utilisateur"><ellipse cx="378.5" cy="271.5" fill="#F1F1F1" rx="8" ry="8" style="stroke:#181818;stroke-width:0.5;"/><path d="M378.5,279.5 L378.5,306.5 M365.5,287.5 L391.5,287.5 M378.5,306.5 L365.5,321.5 M378.5,306.5 L391.5,321.5 " fill="none" style="stroke:#181818;stroke-width:0.5;"/><text fill="#000000" font-family="sans-serif" font-size="14" lengthAdjust="spacing" textLength="68" x="344.5" y="335.9951">Utilisateur</text></g><!--MD5=[65f381bbf6b70ae9420fd95f7d3dd741]
entity Commentateur--><g id="elem_Commentateur"><ellipse cx="499.5" cy="271.5" fill="#F1F1F1" rx="8" ry="8" style="stroke:#181818;stroke-width:0.5;"/><path d="M499.5,279.5 L499.5,306.5 M486.5,287.5 L512.5,287.5 M499.5,306.5 L486.5,321.5 M499.5,306.5 L512.5,321.5 " fill="none" style="stroke:#181818;stroke-width:0.5;"/><text fill="#000000" font-family="sans-serif" font-size="14" lengthAdjust="spacing" textLength="104" x="447.5" y="335.9951">Commentateur</text></g><!--MD5=[15e5ddc83016ae037314666173a341e2]
entity Administrateur--><g id="elem_Administrateur"><ellipse cx="378.5" cy="135.5" fill="#F1F1F1" rx="8" ry="8" style="stroke:#181818;stroke-width:0.5;"/><path d="M378.5,143.5 L378.5,170.5 M365.5,151.5 L391.5,151.5 M378.5,170.5 L365.5,185.5 M378.5,170.5 L391.5,185.5 " fill="none" style="stroke:#181818;stroke-width:0.5;"/><text fill="#000000" font-family="sans-serif" font-size="14" lengthAdjust="spacing" textLength="100" x="328.5" y="199.9951">Administrateur</text></g><g id="elem_Accéder à son espace administrateur"><ellipse cx="149.5353" cy="165.1071" fill="#F1F1F1" rx="143.5353" ry="31.1071" style="stroke:#181818;stroke-width:0.5;"/><text fill="#000000" font-family="sans-serif" font-size="14" lengthAdjust="spacing" textLength="257" x="21.0353" y="167.9537">Accéder à son espace administrateur</text></g><g id="elem_Renseigner les côtes des équipes"><ellipse cx="597.4969" cy="165.1994" fill="#F1F1F1" rx="133.9969" ry="29.1994" style="stroke:#181818;stroke-width:0.5;"/><text fill="#000000" font-family="sans-serif" font-size="14" lengthAdjust="spacing" textLength="237" x="478.9969" y="168.0461">Renseigner les côtes des équipes</text></g><g id="elem_Créer des joueurs"><ellipse cx="636.288" cy="36.3576" fill="#F1F1F1" rx="82.288" ry="18.8576" style="stroke:#181818;stroke-width:0.5;"/><text fill="#000000" font-family="sans-serif" font-size="14" lengthAdjust="spacing" textLength="124" x="573.4505" y="39.4838">Créer des joueurs</text></g><g id="elem_Affecter des équipes dans un match"><ellipse cx="378.6894" cy="36.4379" fill="#F1F1F1" rx="140.1894" ry="30.4379" style="stroke:#181818;stroke-width:0.5;"/><text fill="#000000" font-family="sans-serif" font-size="14" lengthAdjust="spacing" textLength="250" x="253.6894" y="39.2846">Affecter des équipes dans un match</text></g><g id="elem_Créer des équipes"><ellipse cx="119.495" cy="36.699" fill="#F1F1F1" rx="83.995" ry="19.199" style="stroke:#181818;stroke-width:0.5;"/><text fill="#000000" font-family="sans-serif" font-size="14" lengthAdjust="spacing" textLength="128" x="55.2335" y="39.6356">Créer des équipes</text></g><!--MD5=[cce6ada152aef6e9e1ce26c992af768e]
link Administrateur to Visiteur--><g id="link_Administrateur_Visiteur"><path d="M352.04,203.33 C339.69,220.75 324.96,241.52 312.33,259.34 " fill="none" id="Administrateur-to-Visiteur" style="stroke:#181818;stroke-width:1.0;"/><polygon fill="#181818" points="309.17,263.8,317.6377,258.7703,312.0613,259.7207,311.1109,254.1443,309.17,263.8" style="stroke:#181818;stroke-width:1.0;"/></g><!--MD5=[71fd9dfa3f17dc0f28477b13209d3a54]
link Administrateur to Utilisateur--><g id="link_Administrateur_Utilisateur"><path d="M378.5,203.33 C378.5,220.17 378.5,240.15 378.5,257.56 " fill="none" id="Administrateur-to-Utilisateur" style="stroke:#181818;stroke-width:1.0;"/><polygon fill="#181818" points="378.5,262.87,382.5,253.87,378.5,257.87,374.5,253.87,378.5,262.87" style="stroke:#181818;stroke-width:1.0;"/></g><!--MD5=[d5fd144af2658a601c940f0f812f5860]
link Administrateur to Commentateur--><g id="link_Administrateur_Commentateur"><path d="M412.21,203.33 C427.81,220.61 446.39,241.18 462.39,258.9 " fill="none" id="Administrateur-to-Commentateur" style="stroke:#181818;stroke-width:1.0;"/><polygon fill="#181818" points="465.98,262.87,462.8947,253.5169,462.6202,259.1671,456.97,258.8926,465.98,262.87" style="stroke:#181818;stroke-width:1.0;"/></g><!--MD5=[db7ef585962f5e0a05ff5ef92358180a]
link Accéder à son espace administrateur to Administrateur--><g id="link_Accéder à son espace administrateur_Administrateur"><path d="M293.07,165 C304.86,165 316.65,165 328.44,165 " fill="none" id="Accéder à son espace administrateur-Administrateur" style="stroke:#181818;stroke-width:1.0;"/></g><!--MD5=[cff646b4e0f4a486e66f6c3332195f80]
link Administrateur to Renseigner les côtes des équipes--><g id="link_Administrateur_Renseigner les côtes des équipes"><path d="M428.54,165 C440.09,165 451.64,165 463.19,165 " fill="none" id="Administrateur-Renseigner les côtes des équipes" style="stroke:#181818;stroke-width:1.0;"/></g><!--MD5=[43bd02ad6671ae9dc76528f399f3c34a]
link Créer des joueurs to Administrateur--><g id="link_Créer des joueurs_Administrateur"><path d="M600.48,53.71 C562.04,71.19 499.51,100.12 446.5,127 C440.75,129.92 434.76,133.04 428.83,136.19 " fill="none" id="Créer des joueurs-Administrateur" style="stroke:#181818;stroke-width:1.0;"/></g><!--MD5=[5a4a0ce7500719d72fd5c0936c04ffd2]
link Affecter des équipes dans un match to Administrateur--><g id="link_Affecter des équipes dans un match_Administrateur"><path d="M378.5,67.16 C378.5,84.98 378.5,107.81 378.5,126.82 " fill="none" id="Affecter des équipes dans un match-Administrateur" style="stroke:#181818;stroke-width:1.0;"/></g><!--MD5=[fcc6600935c878268047fd05d125cb37]
link Créer des équipes to Administrateur--><g id="link_Créer des équipes_Administrateur"><path d="M155.72,53.69 C194.37,71.14 257.24,100.06 310.5,127 C316.26,129.91 322.25,133.03 328.18,136.18 " fill="none" id="Créer des équipes-Administrateur" style="stroke:#181818;stroke-width:1.0;"/></g><!--MD5=[1f4d5c5064a25bdd9b51e0d0a5c13bd2]
@startuml
actor Visiteur
actor Utilisateur
actor Commentateur
actor Administrateur

Visiteur <-up- Administrateur
Utilisateur <-up- Administrateur
Commentateur <-up- Administrateur

Administrateur -left- (Accéder à son espace administrateur)
Administrateur -right- (Renseigner les côtes des équipes)
Administrateur -up- (Créer des joueurs)
Administrateur -up- (Affecter des équipes dans un match)
Administrateur -up- (Créer des équipes)
@enduml

PlantUML version 1.2022.7(Mon Aug 22 17:01:30 UTC 2022)
(GPL source distribution)
Java Runtime: OpenJDK Runtime Environment
JVM: OpenJDK 64-Bit Server VM
Default Encoding: UTF-8
Language: en
Country: null
--></g></svg>